<svg xmlns="http://www.w3.org/2000/svg" width="1000" height="970" viewBox="0 0 1000 970"><ellipse cx="500" cy="485" rx="500" ry="485" fill="#ffd9ff"/><path d="M688.81,765.91a843.1,843.1,0,0,0,96.9-103.47,84.34,84.34,0,0,0,59-5.23,210.65,210.65,0,0,1-42.38-47.57,91.78,91.78,0,0,0,80.72-7.37S806.19,559.45,795.24,525c-40.72-127.26-37.62-138.67-37.62-138.67,23.81-61.61,42.38-132,23.81-155.09-23.81-29.49-51.67,16.89-122.38,64.46,0,0-42.38-40.2-156.19-40.2a370.45,370.45,0,0,0-151.19,40.92c-32.38-23.79-53.34-45.67-79.05-60.42-39.05-23.79-57.62-2.14-43.1,47.57,6,20,15,64,23.81,103.23,6.43,28.07,0,21.65-23.81,108a306,306,0,0,1-31,59.71A123.09,123.09,0,0,1,127.14,602a91.75,91.75,0,0,0,80.72,7.37A210.43,210.43,0,0,1,165.48,657a84.38,84.38,0,0,0,59,5.24,214.2,214.2,0,0,0,94.53,98.95s47.62,56.13,184.76,56.13C627.38,817.29,688.81,765.91,688.81,765.91Z" fill="#ffe888"/><path d="M393.57,275.68S254.76,407.22,273.1,586.33c20.23,197.19,230.71,231,230.71,231A335.06,335.06,0,0,1,226.19,662.44s-40,14.28-59.05-5.23c0,0,36-23.78,42.38-47.57a87,87,0,0,1-80.71-7.37,131.7,131.7,0,0,0,81.43-63C255.48,462.64,256.67,335.86,393.57,275.68Z" fill="#eaba5c"/><path d="M330,320.64S302.38,296.85,271,273.07c-23.81-18.32-35.95-18.8-42.14,1.66L258.1,397l27.61-16.41,21.91-36.16Zm352.86,0s27.62-23.79,59-47.57c23.81-18.32,36-18.8,42.15,1.66L754.76,398.18l-26.66-17.6-21.91-36.16Z" fill="#eaba5c"/><path d="M226.19,662.44a84.32,84.32,0,0,1-59.52-5.23,210.65,210.65,0,0,0,42.38-47.57,91.78,91.78,0,0,1-80.72-7.37,123.06,123.06,0,0,0,81.43-63c19.29-37.58,44.76-111.55,65.48-149.14,52.86-96.57,121.9-134.63,228.09-134.63A247.22,247.22,0,0,1,738.1,391c20.71,37.59,46.19,111.56,65.47,149.14a123.09,123.09,0,0,0,81.43,63,92,92,0,0,1-80.71,7.37,210.65,210.65,0,0,0,42.38,47.57,84.4,84.4,0,0,1-59,5.24S690.48,817.29,506.43,817.29,226.19,662.44,226.19,662.44Z" fill="none" stroke="#44392e" stroke-linecap="round" stroke-linejoin="round" stroke-width="15.02"/><path d="M347.86,293.76l-74.29-55.9C245,215.74,216,226.21,226,271.64c7.38,30,30.95,127.49,30.95,127.49M660,296.61l78.1-60.41c28.57-22.12,57.61-11.66,47.61,33.77-7.38,30-30.71,128.21-30.71,128.21" fill="none" stroke="#44392e" stroke-linecap="round" stroke-linejoin="round" stroke-width="12.71"/><ellipse cx="323.81" cy="470.97" rx="97.62" ry="97.52" fill="#fff" stroke="#44392e" stroke-miterlimit="10" stroke-width="12.71"/><ellipse cx="324.29" cy="467.4" rx="60" ry="59.94" fill="#44392e" stroke="#f930e7" stroke-miterlimit="10" stroke-width="13.04"/><ellipse cx="323.54" cy="426.42" rx="28.1" ry="28.07" fill="#fff"/><ellipse cx="689.76" cy="470.97" rx="97.62" ry="97.52" fill="#fff" stroke="#44392e" stroke-miterlimit="10" stroke-width="12.71"/><ellipse cx="690.48" cy="471.92" rx="60" ry="59.94" fill="#44392e" stroke="#f930e7" stroke-miterlimit="10" stroke-width="13.04"/><ellipse cx="689.84" cy="431.01" rx="28.1" ry="28.07" fill="#fff"/><path d="M562.62,639.85a63.77,63.77,0,0,1-55,64.46,63.53,63.53,0,0,1-55.24-64.46l54.76-32.11Z" fill="#44392e"/><path d="M551.9,677.91a61.93,61.93,0,0,0-87.52-2c-.68.65-1.35,1.31-2,2l45.24,19.74Z" fill="#f930e7"/><path d="M469.29,676a50,50,0,0,1,38.33-14.51,54.36,54.36,0,0,1,34,10.47" fill="none" stroke="#44392e" stroke-linecap="round" stroke-miterlimit="10" stroke-width="10.69"/><path d="M503.57,624.39h8.1" fill="none" stroke="#fff" stroke-linecap="round" stroke-linejoin="round" stroke-width="40.69"/><path d="M650.24,627.72a84.87,84.87,0,0,1-44.76,19,116.54,116.54,0,0,1-48.81-4.52,98.33,98.33,0,0,1-43.81-23.79A49,49,0,0,1,500,594.65a101.94,101.94,0,0,1,0-13.08V569.92a9.27,9.27,0,0,1,8.79-9.75h0a9.53,9.53,0,0,1,9.76,9v11.66a47.28,47.28,0,0,0,0,10.23,31.88,31.88,0,0,0,8.1,16.88,86.45,86.45,0,0,0,36,23.79,93.18,93.18,0,0,0,85.24-8.8,3.8,3.8,0,0,1,5,0,3.34,3.34,0,0,1-1.55,4.45A3.65,3.65,0,0,1,650.24,627.72Z" fill="#44392e"/><path d="M376,622.72A65,65,0,0,0,416.43,637a106.4,106.4,0,0,0,43.09-7.61A75.74,75.74,0,0,0,493.1,605.6,28.3,28.3,0,0,0,498.57,589V565.16a9.28,9.28,0,0,1,9-9.51h0a9.76,9.76,0,0,1,9.52,9.28v23.79a44.42,44.42,0,0,1-10.47,25.92,89.07,89.07,0,0,1-42.86,27.6,117.7,117.7,0,0,1-47.62,5.23,75.07,75.07,0,0,1-44.29-19.27,3.33,3.33,0,0,1,4.53-4.75Z" fill="#44392e"/><path d="M562.62,647.46a55.24,55.24,0,0,1-110,0" fill="none" stroke="#44392e" stroke-linecap="round" stroke-miterlimit="10" stroke-width="16.16"/><path d="M461,564.68A11.17,11.17,0,0,1,463.57,553a61.71,61.71,0,0,1,45.24-16.18,53.84,53.84,0,0,1,43.09,15.23A11.4,11.4,0,0,1,553.81,564a14.76,14.76,0,0,1-13.1,9,28.38,28.38,0,0,0-23.81,11.65l-1.42,1.67a12.15,12.15,0,0,1-17.16.7c-.24-.23-.48-.46-.7-.7,0,0-5.24-9.28-23.81-10.7a15.26,15.26,0,0,1-12.62-10Zm-26.43,20.94a219.86,219.86,0,0,0-109,3.09,170.47,170.47,0,0,0-88.81,63.74,174,174,0,0,1,86.66-70.16,231.9,231.9,0,0,1,113.34-9.76,6.9,6.9,0,0,1,5.71,7.61,6.42,6.42,0,0,1-7.2,5.54l-.42-.06Z" fill="#44392e"/><path d="M435.71,601.79a128.9,128.9,0,0,0-71.42,12.61A86.06,86.06,0,0,0,326.43,676,120.07,120.07,0,0,1,336,638.9a77.36,77.36,0,0,1,23.81-30A138.12,138.12,0,0,1,435,588.71a6.18,6.18,0,0,1,6.65,5.69c0,.16,0,.33,0,.49a6.67,6.67,0,0,1-6.19,6.9Zm141.91-29.26A231.87,231.87,0,0,1,691,582.29a173.06,173.06,0,0,1,86.67,70.16,168.61,168.61,0,0,0-88.81-63.74A219,219,0,0,0,580,585.62a6.66,6.66,0,0,1-4.94-12.38,6.85,6.85,0,0,1,2.32-.47Z" fill="#44392e"/><path d="M578.81,588.71a138.66,138.66,0,0,1,75.24,20.22,74.72,74.72,0,0,1,23.81,30,120.07,120.07,0,0,1,9.52,37.1,86.06,86.06,0,0,0-37.86-61.6,128.18,128.18,0,0,0-71.42-12.61,6.9,6.9,0,0,1-6.67-7.13h0a6.42,6.42,0,0,1,6.18-6.65h.25Z" fill="#44392e"/></svg>